<?xml version="1.0" standalone="no"?>
<!DOCTYPE svg PUBLIC "-//W3C//DTD SVG 20010904//EN"
 "http://www.w3.org/TR/2001/REC-SVG-20010904/DTD/svg10.dtd">
<svg version="1.0" xmlns="http://www.w3.org/2000/svg"
 width="500.000000pt" height="500.000000pt" viewBox="0 0 500.000000 500.000000"
 preserveAspectRatio="xMidYMid meet">

<g transform="translate(0.000000,500.000000) scale(0.100000,-0.100000)"
fill="#000000" stroke="none">
<path d="M2954 3445 c-280 -261 -512 -471 -516 -467 -3 4 -80 159 -169 345
l-163 337 -217 0 -218 0 68 -142 c38 -79 155 -318 260 -531 l190 -389 -29 -91
c-16 -50 -28 -92 -27 -93 1 -1 296 331 656 737 360 407 656 737 659 735 2 -3
-243 -364 -546 -803 l-550 -798 81 -160 80 -160 380 760 c469 938 588 1183
577 1190 -4 3 -237 -209 -516 -470z"/>
<path d="M670 1650 l0 -101 43 -39 c70 -66 114 -93 139 -86 13 3 51 31 86 62
l62 56 0 104 0 104 -30 0 -30 0 0 -88 0 -89 -51 -43 -50 -42 -47 39 -47 40 -3
92 -3 91 -34 0 -35 0 0 -100z"/>
<path d="M1125 1725 c-24 -23 -25 -30 -25 -138 0 -100 3 -117 21 -141 20 -26
21 -26 165 -26 l144 0 0 35 0 35 -130 0 -130 0 0 30 0 30 130 0 130 0 0 35 0
35 -130 0 -130 0 0 30 0 30 130 0 130 0 0 35 0 35 -140 0 c-136 0 -142 -1
-165 -25z"/>
<path d="M1530 1715 l0 -35 65 0 65 0 0 -130 0 -130 35 0 35 0 0 130 0 130 65
0 65 0 0 35 0 35 -165 0 -165 0 0 -35z"/>
<path d="M1980 1730 c-18 -18 -20 -33 -20 -145 0 -167 -2 -165 159 -165 167 0
166 -1 166 165 0 166 1 165 -166 165 -106 0 -121 -2 -139 -20z m240 -145 l0
-95 -100 0 -100 0 0 95 0 95 100 0 100 0 0 -95z"/>
<path d="M2380 1585 l0 -165 35 0 35 0 0 65 c0 61 1 65 23 65 15 0 45 -23 87
-65 59 -60 68 -65 107 -65 42 0 43 0 43 35 0 33 -2 35 -33 35 -24 0 -41 8 -62
30 l-29 30 40 0 c62 0 84 27 84 100 0 95 -8 100 -185 100 l-145 0 0 -165z
m270 65 l0 -30 -100 0 -100 0 0 30 0 30 100 0 100 0 0 -30z"/>
<path d="M2810 1715 l0 -35 65 0 65 0 0 -95 0 -94 -62 -3 c-63 -3 -63 -3 -66
-35 l-3 -33 165 0 166 0 0 35 0 35 -65 0 -65 0 0 95 0 95 65 0 65 0 0 35 0 35
-165 0 -165 0 0 -35z"/>
<path d="M3240 1715 l0 -35 107 0 108 0 -110 -110 c-144 -145 -145 -144 69
-148 l157 -3 -3 33 -3 33 -104 3 -105 3 109 109 c144 145 144 144 -69 148
l-156 3 0 -36z"/>
<path d="M3670 1715 l0 -35 107 0 108 0 -109 -109 c-146 -147 -147 -145 62
-149 l163 -3 -3 33 -3 33 -104 3 -104 3 107 109 c96 97 106 111 96 129 -10 20
-19 21 -165 21 l-155 0 0 -35z"/>
<path d="M4119 1731 c-23 -18 -24 -26 -27 -165 l-3 -146 35 0 36 0 0 65 0 65
100 0 100 0 0 -65 0 -65 30 0 30 0 0 145 c0 190 4 185 -159 185 -102 0 -122
-3 -142 -19z m241 -81 l0 -30 -100 0 -100 0 0 30 0 30 100 0 100 0 0 -30z"/>
<path d="M1740 1160 l0 -81 78 3 77 3 0 75 0 75 -77 3 -78 3 0 -81z m130 0 l0
-50 -45 0 -45 0 0 50 0 50 45 0 45 0 0 -50z"/>
<path d="M1990 1225 c0 -10 10 -15 30 -15 29 0 30 -1 30 -50 0 -49 -1 -50 -30
-50 -20 0 -30 -5 -30 -15 0 -12 16 -15 80 -15 64 0 80 3 80 15 0 10 -11 15
-35 15 l-35 0 0 50 0 50 35 0 c24 0 35 5 35 15 0 12 -16 15 -80 15 -64 0 -80
-3 -80 -15z"/>
<path d="M2234 1226 c-3 -7 -4 -42 -2 -77 l3 -64 63 -3 c76 -4 92 7 92 59 l0
39 -50 0 c-37 0 -50 -4 -50 -14 0 -9 12 -16 33 -18 20 -2 32 -8 32 -18 0 -11
-13 -16 -47 -18 l-48 -3 0 50 0 51 65 0 c51 0 65 3 65 15 0 21 -148 22 -156 1z"/>
<path d="M2470 1225 c0 -10 10 -15 30 -15 29 0 30 -1 30 -50 0 -49 -1 -50 -30
-50 -20 0 -30 -5 -30 -15 0 -12 16 -15 80 -15 63 0 80 3 80 14 0 9 -12 16 -32
18 -32 3 -33 5 -33 48 0 43 1 45 33 48 20 2 32 9 32 18 0 11 -17 14 -80 14
-64 0 -80 -3 -80 -15z"/>
<path d="M2710 1225 c0 -10 11 -15 35 -15 l35 0 0 -65 c0 -51 3 -65 15 -65 12
0 15 14 15 65 l0 65 30 0 c20 0 30 5 30 15 0 12 -16 15 -80 15 -64 0 -80 -3
-80 -15z"/>
<path d="M2962 1228 c-7 -7 -12 -39 -12 -80 0 -61 2 -68 20 -68 16 0 20 7 20
35 0 35 0 35 45 35 45 0 45 0 45 -35 0 -25 4 -35 15 -35 13 0 15 13 13 78 l-3
77 -65 3 c-42 2 -70 -2 -78 -10z m118 -33 c0 -11 -12 -15 -45 -15 -33 0 -45 4
-45 15 0 11 12 15 45 15 33 0 45 -4 45 -15z"/>
<path d="M3190 1172 c0 -40 5 -73 12 -80 7 -7 40 -12 80 -12 54 0 68 3 68 15
0 12 -13 15 -60 15 l-60 0 0 65 c0 58 -2 65 -20 65 -18 0 -20 -7 -20 -68z"/>
</g>
</svg>
